<mxfile host="65bd71144e">
    <diagram id="L_Z5NAsLN9u2EkYvh6Dj" name="Page-1">
        <mxGraphModel dx="2343" dy="1366" grid="1" gridSize="10" guides="1" tooltips="1" connect="1" arrows="1" fold="1" page="1" pageScale="1" pageWidth="850" pageHeight="1100" background="none" math="0" shadow="0">
            <root>
                <mxCell id="0"/>
                <mxCell id="1" parent="0"/>
                <mxCell id="2" value="Admin Login" style="rounded=1;whiteSpace=wrap;html=1;fillColor=none;" parent="1" vertex="1">
                    <mxGeometry x="2330" y="170" width="120" height="60" as="geometry"/>
                </mxCell>
                <mxCell id="3" value="" style="ellipse;html=1;shape=startState;fillColor=#000000;strokeColor=#ff0000;" parent="1" vertex="1">
                    <mxGeometry x="2375" y="80" width="30" height="30" as="geometry"/>
                </mxCell>
                <mxCell id="4" value="" style="edgeStyle=orthogonalEdgeStyle;html=1;verticalAlign=bottom;endArrow=open;endSize=8;strokeColor=#ff0000;" parent="1" source="3" edge="1">
                    <mxGeometry relative="1" as="geometry">
                        <mxPoint x="2390" y="170" as="targetPoint"/>
                    </mxGeometry>
                </mxCell>
                <mxCell id="9" value="" style="endArrow=classic;html=1;exitX=0.5;exitY=1;exitDx=0;exitDy=0;entryX=0.5;entryY=0;entryDx=0;entryDy=0;" parent="1" source="2" target="24" edge="1">
                    <mxGeometry width="50" height="50" relative="1" as="geometry">
                        <mxPoint x="2370" y="300" as="sourcePoint"/>
                        <mxPoint x="2390" y="250" as="targetPoint"/>
                    </mxGeometry>
                </mxCell>
                <mxCell id="24" value="Admin Dashboard" style="rounded=1;whiteSpace=wrap;html=1;fillColor=none;" parent="1" vertex="1">
                    <mxGeometry x="2330" y="260" width="120" height="60" as="geometry"/>
                </mxCell>
                <mxCell id="26" value="Add User" style="rounded=1;whiteSpace=wrap;html=1;fillColor=none;" parent="1" vertex="1">
                    <mxGeometry x="80" y="380" width="120" height="60" as="geometry"/>
                </mxCell>
                <mxCell id="28" value="Users Details" style="rounded=1;whiteSpace=wrap;html=1;fillColor=none;" parent="1" vertex="1">
                    <mxGeometry x="80" y="670" width="120" height="60" as="geometry"/>
                </mxCell>
                <mxCell id="39" value="" style="ellipse;html=1;shape=endState;fillColor=#000000;strokeColor=#ff0000;" parent="1" vertex="1">
                    <mxGeometry x="2375" y="880" width="30" height="30" as="geometry"/>
                </mxCell>
                <mxCell id="57" value="Logout" style="rounded=1;whiteSpace=wrap;html=1;fillColor=none;" parent="1" vertex="1">
                    <mxGeometry x="2330" y="790" width="120" height="60" as="geometry"/>
                </mxCell>
                <mxCell id="58" value="" style="endArrow=classic;html=1;exitX=0.5;exitY=1;exitDx=0;exitDy=0;entryX=0.5;entryY=0;entryDx=0;entryDy=0;" parent="1" source="57" target="39" edge="1">
                    <mxGeometry width="50" height="50" relative="1" as="geometry">
                        <mxPoint x="2360" y="930" as="sourcePoint"/>
                        <mxPoint x="2410" y="880" as="targetPoint"/>
                    </mxGeometry>
                </mxCell>
                <mxCell id="76" value="" style="endArrow=classic;startArrow=classic;html=1;exitX=0.5;exitY=0;exitDx=0;exitDy=0;" parent="1" source="26" target="426" edge="1">
                    <mxGeometry width="50" height="50" relative="1" as="geometry">
                        <mxPoint x="410" y="270" as="sourcePoint"/>
                        <mxPoint x="4800" y="380" as="targetPoint"/>
                        <Array as="points">
                            <mxPoint x="140" y="350"/>
                            <mxPoint x="5240" y="350"/>
                        </Array>
                    </mxGeometry>
                </mxCell>
                <mxCell id="87" value="" style="endArrow=classic;html=1;entryX=0.5;entryY=0;entryDx=0;entryDy=0;" parent="1" target="57" edge="1">
                    <mxGeometry width="50" height="50" relative="1" as="geometry">
                        <mxPoint x="2390" y="730" as="sourcePoint"/>
                        <mxPoint x="2270" y="690" as="targetPoint"/>
                    </mxGeometry>
                </mxCell>
                <mxCell id="94" value="Users List&amp;nbsp;" style="rounded=1;whiteSpace=wrap;html=1;fillColor=none;" vertex="1" parent="1">
                    <mxGeometry x="80" y="580" width="120" height="60" as="geometry"/>
                </mxCell>
                <mxCell id="96" value="" style="endArrow=classic;html=1;exitX=0.5;exitY=1;exitDx=0;exitDy=0;entryX=0.5;entryY=0;entryDx=0;entryDy=0;" edge="1" parent="1" source="94" target="28">
                    <mxGeometry width="50" height="50" relative="1" as="geometry">
                        <mxPoint x="290" y="740" as="sourcePoint"/>
                        <mxPoint x="340" y="690" as="targetPoint"/>
                    </mxGeometry>
                </mxCell>
                <mxCell id="97" value="&lt;span&gt;Modify User&lt;/span&gt;" style="rounded=1;whiteSpace=wrap;html=1;fillColor=none;" vertex="1" parent="1">
                    <mxGeometry x="380" y="380" width="120" height="60" as="geometry"/>
                </mxCell>
                <mxCell id="98" value="&lt;span&gt;Users List&amp;nbsp;&lt;/span&gt;" style="rounded=1;whiteSpace=wrap;html=1;fillColor=none;" vertex="1" parent="1">
                    <mxGeometry x="380" y="580" width="120" height="60" as="geometry"/>
                </mxCell>
                <mxCell id="99" value="&lt;span&gt;Users Details&lt;/span&gt;" style="rounded=1;whiteSpace=wrap;html=1;fillColor=none;" vertex="1" parent="1">
                    <mxGeometry x="380" y="670" width="120" height="60" as="geometry"/>
                </mxCell>
                <mxCell id="100" value="&lt;span&gt;Remove User&lt;/span&gt;" style="rounded=1;whiteSpace=wrap;html=1;fillColor=none;" vertex="1" parent="1">
                    <mxGeometry x="680" y="380" width="120" height="60" as="geometry"/>
                </mxCell>
                <mxCell id="101" value="&lt;span&gt;Users List&amp;nbsp;&lt;/span&gt;" style="rounded=1;whiteSpace=wrap;html=1;fillColor=none;" vertex="1" parent="1">
                    <mxGeometry x="680" y="470" width="120" height="60" as="geometry"/>
                </mxCell>
                <mxCell id="102" value="&lt;span&gt;Users Details&lt;/span&gt;" style="rounded=1;whiteSpace=wrap;html=1;fillColor=none;" vertex="1" parent="1">
                    <mxGeometry x="680" y="560" width="120" height="60" as="geometry"/>
                </mxCell>
                <mxCell id="103" value="" style="endArrow=classic;html=1;" edge="1" parent="1" target="97">
                    <mxGeometry width="50" height="50" relative="1" as="geometry">
                        <mxPoint x="440" y="350" as="sourcePoint"/>
                        <mxPoint x="570" y="460" as="targetPoint"/>
                    </mxGeometry>
                </mxCell>
                <mxCell id="104" value="" style="endArrow=classic;html=1;" edge="1" parent="1" target="100">
                    <mxGeometry width="50" height="50" relative="1" as="geometry">
                        <mxPoint x="740" y="350" as="sourcePoint"/>
                        <mxPoint x="720" y="460" as="targetPoint"/>
                    </mxGeometry>
                </mxCell>
                <mxCell id="106" value="" style="endArrow=classic;html=1;entryX=0.5;entryY=0;entryDx=0;entryDy=0;exitX=0.5;exitY=1;exitDx=0;exitDy=0;" edge="1" parent="1" source="100" target="101">
                    <mxGeometry width="50" height="50" relative="1" as="geometry">
                        <mxPoint x="670" y="510" as="sourcePoint"/>
                        <mxPoint x="720" y="460" as="targetPoint"/>
                    </mxGeometry>
                </mxCell>
                <mxCell id="107" value="" style="endArrow=classic;html=1;exitX=0.5;exitY=1;exitDx=0;exitDy=0;entryX=0.5;entryY=0;entryDx=0;entryDy=0;" edge="1" parent="1" source="98" target="99">
                    <mxGeometry width="50" height="50" relative="1" as="geometry">
                        <mxPoint x="520" y="780" as="sourcePoint"/>
                        <mxPoint x="570" y="730" as="targetPoint"/>
                    </mxGeometry>
                </mxCell>
                <mxCell id="108" value="" style="endArrow=classic;html=1;exitX=0.5;exitY=1;exitDx=0;exitDy=0;entryX=0.5;entryY=0;entryDx=0;entryDy=0;" edge="1" parent="1" source="101" target="102">
                    <mxGeometry width="50" height="50" relative="1" as="geometry">
                        <mxPoint x="690" y="670" as="sourcePoint"/>
                        <mxPoint x="740" y="620" as="targetPoint"/>
                    </mxGeometry>
                </mxCell>
                <mxCell id="121" value="" style="endArrow=classic;html=1;exitX=0.5;exitY=1;exitDx=0;exitDy=0;entryX=0.5;entryY=0;entryDx=0;entryDy=0;" edge="1" parent="1" target="113">
                    <mxGeometry width="50" height="50" relative="1" as="geometry">
                        <mxPoint x="849.9999999999998" y="440" as="sourcePoint"/>
                        <mxPoint x="930" y="460" as="targetPoint"/>
                    </mxGeometry>
                </mxCell>
                <mxCell id="124" value="" style="endArrow=classic;html=1;entryX=0.5;entryY=0;entryDx=0;entryDy=0;exitX=0.5;exitY=1;exitDx=0;exitDy=0;" edge="1" parent="1" target="114">
                    <mxGeometry width="50" height="50" relative="1" as="geometry">
                        <mxPoint x="849.9999999999998" y="530" as="sourcePoint"/>
                        <mxPoint x="1020" y="600" as="targetPoint"/>
                    </mxGeometry>
                </mxCell>
                <mxCell id="221" value="User Already Exists" style="rhombus;whiteSpace=wrap;html=1;fillColor=none;" vertex="1" parent="1">
                    <mxGeometry x="80" y="470" width="120" height="80" as="geometry"/>
                </mxCell>
                <mxCell id="222" value="" style="endArrow=classic;html=1;exitX=0.5;exitY=1;exitDx=0;exitDy=0;" edge="1" parent="1" source="26" target="221">
                    <mxGeometry width="50" height="50" relative="1" as="geometry">
                        <mxPoint x="180" y="510" as="sourcePoint"/>
                        <mxPoint x="230" y="460" as="targetPoint"/>
                    </mxGeometry>
                </mxCell>
                <mxCell id="223" value="" style="endArrow=classic;html=1;entryX=0.5;entryY=0;entryDx=0;entryDy=0;" edge="1" parent="1" target="94">
                    <mxGeometry width="50" height="50" relative="1" as="geometry">
                        <mxPoint x="140" y="550" as="sourcePoint"/>
                        <mxPoint x="230" y="560" as="targetPoint"/>
                    </mxGeometry>
                </mxCell>
                <mxCell id="224" value="Warning Message" style="rounded=1;whiteSpace=wrap;html=1;fillColor=none;" vertex="1" parent="1">
                    <mxGeometry x="230" y="480" width="120" height="60" as="geometry"/>
                </mxCell>
                <mxCell id="225" value="" style="endArrow=classic;html=1;exitX=1;exitY=0.5;exitDx=0;exitDy=0;entryX=0;entryY=0.5;entryDx=0;entryDy=0;" edge="1" parent="1" source="221" target="224">
                    <mxGeometry width="50" height="50" relative="1" as="geometry">
                        <mxPoint x="170" y="560" as="sourcePoint"/>
                        <mxPoint x="210" y="510" as="targetPoint"/>
                    </mxGeometry>
                </mxCell>
                <mxCell id="226" value="No" style="text;html=1;align=center;verticalAlign=middle;resizable=0;points=[];autosize=1;strokeColor=none;fillColor=none;" vertex="1" parent="1">
                    <mxGeometry x="140" y="550" width="30" height="20" as="geometry"/>
                </mxCell>
                <mxCell id="228" value="Yes" style="text;html=1;align=center;verticalAlign=middle;resizable=0;points=[];autosize=1;strokeColor=none;fillColor=none;" vertex="1" parent="1">
                    <mxGeometry x="190" y="490" width="40" height="20" as="geometry"/>
                </mxCell>
                <mxCell id="230" value="User Already Exists" style="rhombus;whiteSpace=wrap;html=1;fillColor=none;" vertex="1" parent="1">
                    <mxGeometry x="380" y="470" width="120" height="80" as="geometry"/>
                </mxCell>
                <mxCell id="231" value="Warning Message" style="rounded=1;whiteSpace=wrap;html=1;fillColor=none;" vertex="1" parent="1">
                    <mxGeometry x="530" y="480" width="120" height="60" as="geometry"/>
                </mxCell>
                <mxCell id="232" value="" style="endArrow=classic;html=1;exitX=1;exitY=0.5;exitDx=0;exitDy=0;entryX=0;entryY=0.5;entryDx=0;entryDy=0;" edge="1" parent="1" source="230" target="231">
                    <mxGeometry width="50" height="50" relative="1" as="geometry">
                        <mxPoint x="470" y="560" as="sourcePoint"/>
                        <mxPoint x="509.9999999999999" y="510" as="targetPoint"/>
                    </mxGeometry>
                </mxCell>
                <mxCell id="233" value="No" style="text;html=1;align=center;verticalAlign=middle;resizable=0;points=[];autosize=1;strokeColor=none;fillColor=none;" vertex="1" parent="1">
                    <mxGeometry x="445" y="550" width="30" height="20" as="geometry"/>
                </mxCell>
                <mxCell id="234" value="Yes" style="text;html=1;align=center;verticalAlign=middle;resizable=0;points=[];autosize=1;strokeColor=none;fillColor=none;" vertex="1" parent="1">
                    <mxGeometry x="490" y="490" width="40" height="20" as="geometry"/>
                </mxCell>
                <mxCell id="235" value="" style="endArrow=classic;html=1;exitX=0.5;exitY=1;exitDx=0;exitDy=0;" edge="1" parent="1" source="97" target="230">
                    <mxGeometry width="50" height="50" relative="1" as="geometry">
                        <mxPoint x="490" y="460" as="sourcePoint"/>
                        <mxPoint x="540" y="410" as="targetPoint"/>
                    </mxGeometry>
                </mxCell>
                <mxCell id="236" value="" style="endArrow=classic;html=1;exitX=0.5;exitY=1;exitDx=0;exitDy=0;entryX=0.5;entryY=0;entryDx=0;entryDy=0;" edge="1" parent="1" source="230" target="98">
                    <mxGeometry width="50" height="50" relative="1" as="geometry">
                        <mxPoint x="490" y="570" as="sourcePoint"/>
                        <mxPoint x="540" y="520" as="targetPoint"/>
                    </mxGeometry>
                </mxCell>
                <mxCell id="237" value="Add Tenant" style="rounded=1;whiteSpace=wrap;html=1;fillColor=none;" vertex="1" parent="1">
                    <mxGeometry x="830" y="380" width="120" height="60" as="geometry"/>
                </mxCell>
                <mxCell id="238" value="Tenant Details" style="rounded=1;whiteSpace=wrap;html=1;fillColor=none;" vertex="1" parent="1">
                    <mxGeometry x="830" y="670" width="120" height="60" as="geometry"/>
                </mxCell>
                <mxCell id="239" value="Tenant List&amp;nbsp;" style="rounded=1;whiteSpace=wrap;html=1;fillColor=none;" vertex="1" parent="1">
                    <mxGeometry x="830" y="580" width="120" height="60" as="geometry"/>
                </mxCell>
                <mxCell id="240" value="" style="endArrow=classic;html=1;exitX=0.5;exitY=1;exitDx=0;exitDy=0;entryX=0.5;entryY=0;entryDx=0;entryDy=0;" edge="1" parent="1" source="239" target="238">
                    <mxGeometry width="50" height="50" relative="1" as="geometry">
                        <mxPoint x="1040" y="740" as="sourcePoint"/>
                        <mxPoint x="1090" y="690" as="targetPoint"/>
                    </mxGeometry>
                </mxCell>
                <mxCell id="241" value="&lt;span&gt;Modify&amp;nbsp;&lt;/span&gt;Tenant" style="rounded=1;whiteSpace=wrap;html=1;fillColor=none;" vertex="1" parent="1">
                    <mxGeometry x="1130" y="380" width="120" height="60" as="geometry"/>
                </mxCell>
                <mxCell id="242" value="Tenant&amp;nbsp;&lt;span&gt;List&amp;nbsp;&lt;/span&gt;" style="rounded=1;whiteSpace=wrap;html=1;fillColor=none;" vertex="1" parent="1">
                    <mxGeometry x="1130" y="580" width="120" height="60" as="geometry"/>
                </mxCell>
                <mxCell id="243" value="Tenant&amp;nbsp;&lt;span&gt;Details&lt;/span&gt;" style="rounded=1;whiteSpace=wrap;html=1;fillColor=none;" vertex="1" parent="1">
                    <mxGeometry x="1130" y="670" width="120" height="60" as="geometry"/>
                </mxCell>
                <mxCell id="244" value="&lt;span&gt;Remove&amp;nbsp;&lt;/span&gt;Tenant" style="rounded=1;whiteSpace=wrap;html=1;fillColor=none;" vertex="1" parent="1">
                    <mxGeometry x="1430" y="380" width="120" height="60" as="geometry"/>
                </mxCell>
                <mxCell id="245" value="Tenant&lt;span&gt;&amp;nbsp;List&amp;nbsp;&lt;/span&gt;" style="rounded=1;whiteSpace=wrap;html=1;fillColor=none;" vertex="1" parent="1">
                    <mxGeometry x="1430" y="470" width="120" height="60" as="geometry"/>
                </mxCell>
                <mxCell id="246" value="Tenant&lt;span&gt;&amp;nbsp;Details&lt;/span&gt;" style="rounded=1;whiteSpace=wrap;html=1;fillColor=none;" vertex="1" parent="1">
                    <mxGeometry x="1430" y="560" width="120" height="60" as="geometry"/>
                </mxCell>
                <mxCell id="247" value="" style="endArrow=classic;html=1;" edge="1" parent="1" target="241">
                    <mxGeometry width="50" height="50" relative="1" as="geometry">
                        <mxPoint x="1190" y="350" as="sourcePoint"/>
                        <mxPoint x="1320" y="460" as="targetPoint"/>
                    </mxGeometry>
                </mxCell>
                <mxCell id="248" value="" style="endArrow=classic;html=1;" edge="1" parent="1" target="244">
                    <mxGeometry width="50" height="50" relative="1" as="geometry">
                        <mxPoint x="1490" y="350" as="sourcePoint"/>
                        <mxPoint x="1470" y="460" as="targetPoint"/>
                    </mxGeometry>
                </mxCell>
                <mxCell id="249" value="" style="endArrow=classic;html=1;entryX=0.5;entryY=0;entryDx=0;entryDy=0;exitX=0.5;exitY=1;exitDx=0;exitDy=0;" edge="1" parent="1" source="244" target="245">
                    <mxGeometry width="50" height="50" relative="1" as="geometry">
                        <mxPoint x="1420" y="510" as="sourcePoint"/>
                        <mxPoint x="1470" y="460" as="targetPoint"/>
                    </mxGeometry>
                </mxCell>
                <mxCell id="250" value="" style="endArrow=classic;html=1;exitX=0.5;exitY=1;exitDx=0;exitDy=0;entryX=0.5;entryY=0;entryDx=0;entryDy=0;" edge="1" parent="1" source="242" target="243">
                    <mxGeometry width="50" height="50" relative="1" as="geometry">
                        <mxPoint x="1270" y="780" as="sourcePoint"/>
                        <mxPoint x="1320" y="730" as="targetPoint"/>
                    </mxGeometry>
                </mxCell>
                <mxCell id="251" value="" style="endArrow=classic;html=1;exitX=0.5;exitY=1;exitDx=0;exitDy=0;entryX=0.5;entryY=0;entryDx=0;entryDy=0;" edge="1" parent="1" source="245" target="246">
                    <mxGeometry width="50" height="50" relative="1" as="geometry">
                        <mxPoint x="1440" y="670" as="sourcePoint"/>
                        <mxPoint x="1490" y="620" as="targetPoint"/>
                    </mxGeometry>
                </mxCell>
                <mxCell id="252" value="Tenant Already Exists" style="rhombus;whiteSpace=wrap;html=1;fillColor=none;" vertex="1" parent="1">
                    <mxGeometry x="830" y="470" width="120" height="80" as="geometry"/>
                </mxCell>
                <mxCell id="253" value="" style="endArrow=classic;html=1;exitX=0.5;exitY=1;exitDx=0;exitDy=0;" edge="1" parent="1" source="237" target="252">
                    <mxGeometry width="50" height="50" relative="1" as="geometry">
                        <mxPoint x="930" y="510" as="sourcePoint"/>
                        <mxPoint x="980" y="460" as="targetPoint"/>
                    </mxGeometry>
                </mxCell>
                <mxCell id="254" value="" style="endArrow=classic;html=1;entryX=0.5;entryY=0;entryDx=0;entryDy=0;" edge="1" parent="1" target="239">
                    <mxGeometry width="50" height="50" relative="1" as="geometry">
                        <mxPoint x="890" y="550" as="sourcePoint"/>
                        <mxPoint x="980" y="560" as="targetPoint"/>
                    </mxGeometry>
                </mxCell>
                <mxCell id="255" value="Warning Message" style="rounded=1;whiteSpace=wrap;html=1;fillColor=none;" vertex="1" parent="1">
                    <mxGeometry x="980" y="480" width="120" height="60" as="geometry"/>
                </mxCell>
                <mxCell id="256" value="" style="endArrow=classic;html=1;exitX=1;exitY=0.5;exitDx=0;exitDy=0;entryX=0;entryY=0.5;entryDx=0;entryDy=0;" edge="1" parent="1" source="252" target="255">
                    <mxGeometry width="50" height="50" relative="1" as="geometry">
                        <mxPoint x="920" y="560" as="sourcePoint"/>
                        <mxPoint x="960" y="510" as="targetPoint"/>
                    </mxGeometry>
                </mxCell>
                <mxCell id="257" value="No" style="text;html=1;align=center;verticalAlign=middle;resizable=0;points=[];autosize=1;strokeColor=none;fillColor=none;" vertex="1" parent="1">
                    <mxGeometry x="895" y="550" width="30" height="20" as="geometry"/>
                </mxCell>
                <mxCell id="258" value="Yes" style="text;html=1;align=center;verticalAlign=middle;resizable=0;points=[];autosize=1;strokeColor=none;fillColor=none;" vertex="1" parent="1">
                    <mxGeometry x="940" y="490" width="40" height="20" as="geometry"/>
                </mxCell>
                <mxCell id="259" value="Tenant Already Exists" style="rhombus;whiteSpace=wrap;html=1;fillColor=none;" vertex="1" parent="1">
                    <mxGeometry x="1130" y="470" width="120" height="80" as="geometry"/>
                </mxCell>
                <mxCell id="260" value="Warning Message" style="rounded=1;whiteSpace=wrap;html=1;fillColor=none;" vertex="1" parent="1">
                    <mxGeometry x="1280" y="480" width="120" height="60" as="geometry"/>
                </mxCell>
                <mxCell id="261" value="" style="endArrow=classic;html=1;exitX=1;exitY=0.5;exitDx=0;exitDy=0;entryX=0;entryY=0.5;entryDx=0;entryDy=0;" edge="1" parent="1" source="259" target="260">
                    <mxGeometry width="50" height="50" relative="1" as="geometry">
                        <mxPoint x="1220" y="560" as="sourcePoint"/>
                        <mxPoint x="1310" y="510" as="targetPoint"/>
                    </mxGeometry>
                </mxCell>
                <mxCell id="262" value="No" style="text;html=1;align=center;verticalAlign=middle;resizable=0;points=[];autosize=1;strokeColor=none;fillColor=none;" vertex="1" parent="1">
                    <mxGeometry x="1195" y="550" width="30" height="20" as="geometry"/>
                </mxCell>
                <mxCell id="263" value="Yes" style="text;html=1;align=center;verticalAlign=middle;resizable=0;points=[];autosize=1;strokeColor=none;fillColor=none;" vertex="1" parent="1">
                    <mxGeometry x="1235" y="490" width="40" height="20" as="geometry"/>
                </mxCell>
                <mxCell id="264" value="" style="endArrow=classic;html=1;exitX=0.5;exitY=1;exitDx=0;exitDy=0;" edge="1" parent="1" source="241" target="259">
                    <mxGeometry width="50" height="50" relative="1" as="geometry">
                        <mxPoint x="1240" y="460" as="sourcePoint"/>
                        <mxPoint x="1290" y="410" as="targetPoint"/>
                    </mxGeometry>
                </mxCell>
                <mxCell id="265" value="" style="endArrow=classic;html=1;exitX=0.5;exitY=1;exitDx=0;exitDy=0;entryX=0.5;entryY=0;entryDx=0;entryDy=0;" edge="1" parent="1" source="259" target="242">
                    <mxGeometry width="50" height="50" relative="1" as="geometry">
                        <mxPoint x="1240" y="570" as="sourcePoint"/>
                        <mxPoint x="1290" y="520" as="targetPoint"/>
                    </mxGeometry>
                </mxCell>
                <mxCell id="266" value="" style="endArrow=classic;html=1;entryX=0.5;entryY=0;entryDx=0;entryDy=0;" edge="1" parent="1" target="237">
                    <mxGeometry width="50" height="50" relative="1" as="geometry">
                        <mxPoint x="890" y="350" as="sourcePoint"/>
                        <mxPoint x="950" y="400" as="targetPoint"/>
                    </mxGeometry>
                </mxCell>
                <mxCell id="267" value="Add Power Usage Monitoring Sensors" style="rounded=1;whiteSpace=wrap;html=1;fillColor=none;" vertex="1" parent="1">
                    <mxGeometry x="1580" y="380" width="120" height="60" as="geometry"/>
                </mxCell>
                <mxCell id="268" value="Power Usage Monitoring Sensors Details" style="rounded=1;whiteSpace=wrap;html=1;fillColor=none;" vertex="1" parent="1">
                    <mxGeometry x="1580" y="670" width="120" height="60" as="geometry"/>
                </mxCell>
                <mxCell id="269" value="Power Usage Monitoring Sensors List&amp;nbsp;" style="rounded=1;whiteSpace=wrap;html=1;fillColor=none;" vertex="1" parent="1">
                    <mxGeometry x="1580" y="580" width="120" height="60" as="geometry"/>
                </mxCell>
                <mxCell id="270" value="" style="endArrow=classic;html=1;exitX=0.5;exitY=1;exitDx=0;exitDy=0;entryX=0.5;entryY=0;entryDx=0;entryDy=0;" edge="1" parent="1" source="269" target="268">
                    <mxGeometry width="50" height="50" relative="1" as="geometry">
                        <mxPoint x="1790" y="740" as="sourcePoint"/>
                        <mxPoint x="1840" y="690" as="targetPoint"/>
                    </mxGeometry>
                </mxCell>
                <mxCell id="271" value="&lt;span&gt;Modify&amp;nbsp;&lt;/span&gt;Power Usage Monitoring Sensors" style="rounded=1;whiteSpace=wrap;html=1;fillColor=none;" vertex="1" parent="1">
                    <mxGeometry x="1880" y="380" width="120" height="60" as="geometry"/>
                </mxCell>
                <mxCell id="272" value="Power Usage Monitoring Sensors&amp;nbsp;&lt;span&gt;List&amp;nbsp;&lt;/span&gt;" style="rounded=1;whiteSpace=wrap;html=1;fillColor=none;" vertex="1" parent="1">
                    <mxGeometry x="1880" y="580" width="120" height="60" as="geometry"/>
                </mxCell>
                <mxCell id="273" value="Power Usage Monitoring Sensors&amp;nbsp;&lt;span&gt;Details&lt;/span&gt;" style="rounded=1;whiteSpace=wrap;html=1;fillColor=none;" vertex="1" parent="1">
                    <mxGeometry x="1880" y="670" width="120" height="60" as="geometry"/>
                </mxCell>
                <mxCell id="274" value="&lt;span&gt;Remove&amp;nbsp;&lt;/span&gt;Power Usage Monitoring Sensors" style="rounded=1;whiteSpace=wrap;html=1;fillColor=none;" vertex="1" parent="1">
                    <mxGeometry x="2180" y="380" width="120" height="60" as="geometry"/>
                </mxCell>
                <mxCell id="275" value="Power Usage Monitoring Sensors List" style="rounded=1;whiteSpace=wrap;html=1;fillColor=none;" vertex="1" parent="1">
                    <mxGeometry x="2180" y="470" width="120" height="60" as="geometry"/>
                </mxCell>
                <mxCell id="276" value="Power Usage Monitoring Sensors Details" style="rounded=1;whiteSpace=wrap;html=1;fillColor=none;" vertex="1" parent="1">
                    <mxGeometry x="2180" y="560" width="120" height="60" as="geometry"/>
                </mxCell>
                <mxCell id="277" value="" style="endArrow=classic;html=1;" edge="1" parent="1" target="271">
                    <mxGeometry width="50" height="50" relative="1" as="geometry">
                        <mxPoint x="1940" y="350" as="sourcePoint"/>
                        <mxPoint x="2070" y="460" as="targetPoint"/>
                    </mxGeometry>
                </mxCell>
                <mxCell id="278" value="" style="endArrow=classic;html=1;" edge="1" parent="1" target="274">
                    <mxGeometry width="50" height="50" relative="1" as="geometry">
                        <mxPoint x="2240" y="350" as="sourcePoint"/>
                        <mxPoint x="2220" y="460" as="targetPoint"/>
                    </mxGeometry>
                </mxCell>
                <mxCell id="279" value="" style="endArrow=classic;html=1;entryX=0.5;entryY=0;entryDx=0;entryDy=0;exitX=0.5;exitY=1;exitDx=0;exitDy=0;" edge="1" parent="1" source="274" target="275">
                    <mxGeometry width="50" height="50" relative="1" as="geometry">
                        <mxPoint x="2170" y="510" as="sourcePoint"/>
                        <mxPoint x="2220" y="460" as="targetPoint"/>
                    </mxGeometry>
                </mxCell>
                <mxCell id="280" value="" style="endArrow=classic;html=1;exitX=0.5;exitY=1;exitDx=0;exitDy=0;entryX=0.5;entryY=0;entryDx=0;entryDy=0;" edge="1" parent="1" source="272" target="273">
                    <mxGeometry width="50" height="50" relative="1" as="geometry">
                        <mxPoint x="2020" y="780" as="sourcePoint"/>
                        <mxPoint x="2070" y="730" as="targetPoint"/>
                    </mxGeometry>
                </mxCell>
                <mxCell id="281" value="" style="endArrow=classic;html=1;exitX=0.5;exitY=1;exitDx=0;exitDy=0;entryX=0.5;entryY=0;entryDx=0;entryDy=0;" edge="1" parent="1" source="275" target="276">
                    <mxGeometry width="50" height="50" relative="1" as="geometry">
                        <mxPoint x="2190" y="670" as="sourcePoint"/>
                        <mxPoint x="2240" y="620" as="targetPoint"/>
                    </mxGeometry>
                </mxCell>
                <mxCell id="282" value="Power Usage Monitoring Sensors Already Exists" style="rhombus;whiteSpace=wrap;html=1;fillColor=none;" vertex="1" parent="1">
                    <mxGeometry x="1580" y="470" width="120" height="80" as="geometry"/>
                </mxCell>
                <mxCell id="283" value="" style="endArrow=classic;html=1;exitX=0.5;exitY=1;exitDx=0;exitDy=0;" edge="1" parent="1" source="267" target="282">
                    <mxGeometry width="50" height="50" relative="1" as="geometry">
                        <mxPoint x="1680" y="510" as="sourcePoint"/>
                        <mxPoint x="1730" y="460" as="targetPoint"/>
                    </mxGeometry>
                </mxCell>
                <mxCell id="284" value="" style="endArrow=classic;html=1;entryX=0.5;entryY=0;entryDx=0;entryDy=0;" edge="1" parent="1" target="269">
                    <mxGeometry width="50" height="50" relative="1" as="geometry">
                        <mxPoint x="1640" y="550" as="sourcePoint"/>
                        <mxPoint x="1730" y="560" as="targetPoint"/>
                    </mxGeometry>
                </mxCell>
                <mxCell id="285" value="Warning Message" style="rounded=1;whiteSpace=wrap;html=1;fillColor=none;" vertex="1" parent="1">
                    <mxGeometry x="1730" y="480" width="120" height="60" as="geometry"/>
                </mxCell>
                <mxCell id="286" value="" style="endArrow=classic;html=1;exitX=1;exitY=0.5;exitDx=0;exitDy=0;entryX=0;entryY=0.5;entryDx=0;entryDy=0;" edge="1" parent="1" source="282" target="285">
                    <mxGeometry width="50" height="50" relative="1" as="geometry">
                        <mxPoint x="1670" y="560" as="sourcePoint"/>
                        <mxPoint x="1710" y="510" as="targetPoint"/>
                    </mxGeometry>
                </mxCell>
                <mxCell id="287" value="No" style="text;html=1;align=center;verticalAlign=middle;resizable=0;points=[];autosize=1;strokeColor=none;fillColor=none;" vertex="1" parent="1">
                    <mxGeometry x="1645" y="550" width="30" height="20" as="geometry"/>
                </mxCell>
                <mxCell id="288" value="Yes" style="text;html=1;align=center;verticalAlign=middle;resizable=0;points=[];autosize=1;strokeColor=none;fillColor=none;" vertex="1" parent="1">
                    <mxGeometry x="1690" y="490" width="40" height="20" as="geometry"/>
                </mxCell>
                <mxCell id="289" value="Power Usage Monitoring Sensors Already Exists" style="rhombus;whiteSpace=wrap;html=1;fillColor=none;" vertex="1" parent="1">
                    <mxGeometry x="1880" y="470" width="120" height="80" as="geometry"/>
                </mxCell>
                <mxCell id="290" value="Warning Message" style="rounded=1;whiteSpace=wrap;html=1;fillColor=none;" vertex="1" parent="1">
                    <mxGeometry x="2030" y="480" width="120" height="60" as="geometry"/>
                </mxCell>
                <mxCell id="291" value="" style="endArrow=classic;html=1;exitX=1;exitY=0.5;exitDx=0;exitDy=0;entryX=0;entryY=0.5;entryDx=0;entryDy=0;" edge="1" parent="1" source="289" target="290">
                    <mxGeometry width="50" height="50" relative="1" as="geometry">
                        <mxPoint x="1970" y="560" as="sourcePoint"/>
                        <mxPoint x="2010" y="510" as="targetPoint"/>
                    </mxGeometry>
                </mxCell>
                <mxCell id="292" value="No" style="text;html=1;align=center;verticalAlign=middle;resizable=0;points=[];autosize=1;strokeColor=none;fillColor=none;" vertex="1" parent="1">
                    <mxGeometry x="1945" y="550" width="30" height="20" as="geometry"/>
                </mxCell>
                <mxCell id="293" value="Yes" style="text;html=1;align=center;verticalAlign=middle;resizable=0;points=[];autosize=1;strokeColor=none;fillColor=none;" vertex="1" parent="1">
                    <mxGeometry x="1990" y="490" width="40" height="20" as="geometry"/>
                </mxCell>
                <mxCell id="294" value="" style="endArrow=classic;html=1;exitX=0.5;exitY=1;exitDx=0;exitDy=0;" edge="1" parent="1" source="271" target="289">
                    <mxGeometry width="50" height="50" relative="1" as="geometry">
                        <mxPoint x="1990" y="460" as="sourcePoint"/>
                        <mxPoint x="2040" y="410" as="targetPoint"/>
                    </mxGeometry>
                </mxCell>
                <mxCell id="295" value="" style="endArrow=classic;html=1;exitX=0.5;exitY=1;exitDx=0;exitDy=0;entryX=0.5;entryY=0;entryDx=0;entryDy=0;" edge="1" parent="1" source="289" target="272">
                    <mxGeometry width="50" height="50" relative="1" as="geometry">
                        <mxPoint x="1990" y="570" as="sourcePoint"/>
                        <mxPoint x="2040" y="520" as="targetPoint"/>
                    </mxGeometry>
                </mxCell>
                <mxCell id="296" value="" style="endArrow=classic;html=1;entryX=0.5;entryY=0;entryDx=0;entryDy=0;" edge="1" parent="1" target="267">
                    <mxGeometry width="50" height="50" relative="1" as="geometry">
                        <mxPoint x="1640" y="350" as="sourcePoint"/>
                        <mxPoint x="1700" y="400" as="targetPoint"/>
                    </mxGeometry>
                </mxCell>
                <mxCell id="298" value="Add Water Usage Monitoring Sensors" style="rounded=1;whiteSpace=wrap;html=1;fillColor=none;" vertex="1" parent="1">
                    <mxGeometry x="2330" y="380" width="120" height="60" as="geometry"/>
                </mxCell>
                <mxCell id="299" value="Water&amp;nbsp;Usage Monitoring Sensors Details" style="rounded=1;whiteSpace=wrap;html=1;fillColor=none;" vertex="1" parent="1">
                    <mxGeometry x="2330" y="670" width="120" height="60" as="geometry"/>
                </mxCell>
                <mxCell id="300" value="Water&amp;nbsp;Usage Monitoring Sensors List&amp;nbsp;" style="rounded=1;whiteSpace=wrap;html=1;fillColor=none;" vertex="1" parent="1">
                    <mxGeometry x="2330" y="580" width="120" height="60" as="geometry"/>
                </mxCell>
                <mxCell id="301" value="" style="endArrow=classic;html=1;exitX=0.5;exitY=1;exitDx=0;exitDy=0;entryX=0.5;entryY=0;entryDx=0;entryDy=0;" edge="1" parent="1" source="300" target="299">
                    <mxGeometry width="50" height="50" relative="1" as="geometry">
                        <mxPoint x="2540" y="740" as="sourcePoint"/>
                        <mxPoint x="2590" y="690" as="targetPoint"/>
                    </mxGeometry>
                </mxCell>
                <mxCell id="302" value="&lt;span&gt;Modify&amp;nbsp;&lt;/span&gt;Water&amp;nbsp;Usage Monitoring Sensors" style="rounded=1;whiteSpace=wrap;html=1;fillColor=none;" vertex="1" parent="1">
                    <mxGeometry x="2630" y="380" width="120" height="60" as="geometry"/>
                </mxCell>
                <mxCell id="303" value="Water&amp;nbsp;Usage Monitoring Sensors&amp;nbsp;&lt;span&gt;List&amp;nbsp;&lt;/span&gt;" style="rounded=1;whiteSpace=wrap;html=1;fillColor=none;" vertex="1" parent="1">
                    <mxGeometry x="2630" y="580" width="120" height="60" as="geometry"/>
                </mxCell>
                <mxCell id="304" value="Water&amp;nbsp;Usage Monitoring Sensors&amp;nbsp;&lt;span&gt;Details&lt;/span&gt;" style="rounded=1;whiteSpace=wrap;html=1;fillColor=none;" vertex="1" parent="1">
                    <mxGeometry x="2630" y="670" width="120" height="60" as="geometry"/>
                </mxCell>
                <mxCell id="305" value="&lt;span&gt;Remove&amp;nbsp;&lt;/span&gt;Water&amp;nbsp;Usage Monitoring Sensors" style="rounded=1;whiteSpace=wrap;html=1;fillColor=none;" vertex="1" parent="1">
                    <mxGeometry x="2930" y="380" width="120" height="60" as="geometry"/>
                </mxCell>
                <mxCell id="306" value="Water&amp;nbsp;Usage Monitoring Sensors List&amp;nbsp;" style="rounded=1;whiteSpace=wrap;html=1;fillColor=none;" vertex="1" parent="1">
                    <mxGeometry x="2930" y="470" width="120" height="60" as="geometry"/>
                </mxCell>
                <mxCell id="307" value="Water&amp;nbsp;Usage Monitoring Sensors Details" style="rounded=1;whiteSpace=wrap;html=1;fillColor=none;" vertex="1" parent="1">
                    <mxGeometry x="2930" y="560" width="120" height="60" as="geometry"/>
                </mxCell>
                <mxCell id="308" value="" style="endArrow=classic;html=1;" edge="1" parent="1" target="302">
                    <mxGeometry width="50" height="50" relative="1" as="geometry">
                        <mxPoint x="2690" y="349.9999999999998" as="sourcePoint"/>
                        <mxPoint x="2820" y="460" as="targetPoint"/>
                    </mxGeometry>
                </mxCell>
                <mxCell id="309" value="" style="endArrow=classic;html=1;" edge="1" parent="1" target="305">
                    <mxGeometry width="50" height="50" relative="1" as="geometry">
                        <mxPoint x="2990" y="349.9999999999998" as="sourcePoint"/>
                        <mxPoint x="2970" y="460" as="targetPoint"/>
                    </mxGeometry>
                </mxCell>
                <mxCell id="310" value="" style="endArrow=classic;html=1;entryX=0.5;entryY=0;entryDx=0;entryDy=0;exitX=0.5;exitY=1;exitDx=0;exitDy=0;" edge="1" parent="1" source="305" target="306">
                    <mxGeometry width="50" height="50" relative="1" as="geometry">
                        <mxPoint x="2920" y="510" as="sourcePoint"/>
                        <mxPoint x="2970" y="460" as="targetPoint"/>
                    </mxGeometry>
                </mxCell>
                <mxCell id="311" value="" style="endArrow=classic;html=1;exitX=0.5;exitY=1;exitDx=0;exitDy=0;entryX=0.5;entryY=0;entryDx=0;entryDy=0;" edge="1" parent="1" source="303" target="304">
                    <mxGeometry width="50" height="50" relative="1" as="geometry">
                        <mxPoint x="2770" y="780" as="sourcePoint"/>
                        <mxPoint x="2820" y="730" as="targetPoint"/>
                    </mxGeometry>
                </mxCell>
                <mxCell id="312" value="" style="endArrow=classic;html=1;exitX=0.5;exitY=1;exitDx=0;exitDy=0;entryX=0.5;entryY=0;entryDx=0;entryDy=0;" edge="1" parent="1" source="306" target="307">
                    <mxGeometry width="50" height="50" relative="1" as="geometry">
                        <mxPoint x="2940" y="670" as="sourcePoint"/>
                        <mxPoint x="2990" y="620" as="targetPoint"/>
                    </mxGeometry>
                </mxCell>
                <mxCell id="313" value="Water&amp;nbsp;Usage Monitoring Sensors Already Exists" style="rhombus;whiteSpace=wrap;html=1;fillColor=none;" vertex="1" parent="1">
                    <mxGeometry x="2330" y="470" width="120" height="80" as="geometry"/>
                </mxCell>
                <mxCell id="314" value="" style="endArrow=classic;html=1;exitX=0.5;exitY=1;exitDx=0;exitDy=0;" edge="1" parent="1" source="298" target="313">
                    <mxGeometry width="50" height="50" relative="1" as="geometry">
                        <mxPoint x="2430" y="510" as="sourcePoint"/>
                        <mxPoint x="2480" y="460" as="targetPoint"/>
                    </mxGeometry>
                </mxCell>
                <mxCell id="315" value="" style="endArrow=classic;html=1;entryX=0.5;entryY=0;entryDx=0;entryDy=0;" edge="1" parent="1" target="300">
                    <mxGeometry width="50" height="50" relative="1" as="geometry">
                        <mxPoint x="2390" y="549.9999999999998" as="sourcePoint"/>
                        <mxPoint x="2480" y="560" as="targetPoint"/>
                    </mxGeometry>
                </mxCell>
                <mxCell id="316" value="Warning Message" style="rounded=1;whiteSpace=wrap;html=1;fillColor=none;" vertex="1" parent="1">
                    <mxGeometry x="2480" y="480" width="120" height="60" as="geometry"/>
                </mxCell>
                <mxCell id="317" value="" style="endArrow=classic;html=1;exitX=1;exitY=0.5;exitDx=0;exitDy=0;entryX=0;entryY=0.5;entryDx=0;entryDy=0;" edge="1" parent="1" source="313" target="316">
                    <mxGeometry width="50" height="50" relative="1" as="geometry">
                        <mxPoint x="2420" y="560" as="sourcePoint"/>
                        <mxPoint x="2460" y="510" as="targetPoint"/>
                    </mxGeometry>
                </mxCell>
                <mxCell id="318" value="No" style="text;html=1;align=center;verticalAlign=middle;resizable=0;points=[];autosize=1;strokeColor=none;fillColor=none;" vertex="1" parent="1">
                    <mxGeometry x="2395" y="550" width="30" height="20" as="geometry"/>
                </mxCell>
                <mxCell id="319" value="Yes" style="text;html=1;align=center;verticalAlign=middle;resizable=0;points=[];autosize=1;strokeColor=none;fillColor=none;" vertex="1" parent="1">
                    <mxGeometry x="2440" y="490" width="40" height="20" as="geometry"/>
                </mxCell>
                <mxCell id="320" value="Water&amp;nbsp;Usage Monitoring Sensors Already Exists" style="rhombus;whiteSpace=wrap;html=1;fillColor=none;" vertex="1" parent="1">
                    <mxGeometry x="2630" y="470" width="120" height="80" as="geometry"/>
                </mxCell>
                <mxCell id="321" value="Warning Message" style="rounded=1;whiteSpace=wrap;html=1;fillColor=none;" vertex="1" parent="1">
                    <mxGeometry x="2780" y="480" width="120" height="60" as="geometry"/>
                </mxCell>
                <mxCell id="322" value="" style="endArrow=classic;html=1;exitX=1;exitY=0.5;exitDx=0;exitDy=0;entryX=0;entryY=0.5;entryDx=0;entryDy=0;" edge="1" parent="1" source="320" target="321">
                    <mxGeometry width="50" height="50" relative="1" as="geometry">
                        <mxPoint x="2720" y="560" as="sourcePoint"/>
                        <mxPoint x="2760" y="510" as="targetPoint"/>
                    </mxGeometry>
                </mxCell>
                <mxCell id="323" value="No" style="text;html=1;align=center;verticalAlign=middle;resizable=0;points=[];autosize=1;strokeColor=none;fillColor=none;" vertex="1" parent="1">
                    <mxGeometry x="2695" y="550" width="30" height="20" as="geometry"/>
                </mxCell>
                <mxCell id="324" value="Yes" style="text;html=1;align=center;verticalAlign=middle;resizable=0;points=[];autosize=1;strokeColor=none;fillColor=none;" vertex="1" parent="1">
                    <mxGeometry x="2740" y="490" width="40" height="20" as="geometry"/>
                </mxCell>
                <mxCell id="325" value="" style="endArrow=classic;html=1;exitX=0.5;exitY=1;exitDx=0;exitDy=0;" edge="1" parent="1" source="302" target="320">
                    <mxGeometry width="50" height="50" relative="1" as="geometry">
                        <mxPoint x="2740" y="460" as="sourcePoint"/>
                        <mxPoint x="2790" y="410" as="targetPoint"/>
                    </mxGeometry>
                </mxCell>
                <mxCell id="326" value="" style="endArrow=classic;html=1;exitX=0.5;exitY=1;exitDx=0;exitDy=0;entryX=0.5;entryY=0;entryDx=0;entryDy=0;" edge="1" parent="1" source="320" target="303">
                    <mxGeometry width="50" height="50" relative="1" as="geometry">
                        <mxPoint x="2740" y="570" as="sourcePoint"/>
                        <mxPoint x="2790" y="520" as="targetPoint"/>
                    </mxGeometry>
                </mxCell>
                <mxCell id="327" value="" style="endArrow=classic;html=1;entryX=0.5;entryY=0;entryDx=0;entryDy=0;" edge="1" parent="1" target="298">
                    <mxGeometry width="50" height="50" relative="1" as="geometry">
                        <mxPoint x="2390" y="349.9999999999998" as="sourcePoint"/>
                        <mxPoint x="2450" y="400" as="targetPoint"/>
                    </mxGeometry>
                </mxCell>
                <mxCell id="359" value="Add Water Quality Monitoring Sensors" style="rounded=1;whiteSpace=wrap;html=1;fillColor=none;" vertex="1" parent="1">
                    <mxGeometry x="3080" y="380" width="120" height="60" as="geometry"/>
                </mxCell>
                <mxCell id="360" value="Water Quality&amp;nbsp;Monitoring Sensors Details" style="rounded=1;whiteSpace=wrap;html=1;fillColor=none;" vertex="1" parent="1">
                    <mxGeometry x="3080" y="670" width="120" height="60" as="geometry"/>
                </mxCell>
                <mxCell id="361" value="Water Quality&amp;nbsp;Monitoring Sensors List&amp;nbsp;" style="rounded=1;whiteSpace=wrap;html=1;fillColor=none;" vertex="1" parent="1">
                    <mxGeometry x="3080" y="580" width="120" height="60" as="geometry"/>
                </mxCell>
                <mxCell id="362" value="" style="endArrow=classic;html=1;exitX=0.5;exitY=1;exitDx=0;exitDy=0;entryX=0.5;entryY=0;entryDx=0;entryDy=0;" edge="1" parent="1" source="361" target="360">
                    <mxGeometry width="50" height="50" relative="1" as="geometry">
                        <mxPoint x="3290" y="740" as="sourcePoint"/>
                        <mxPoint x="3340" y="690" as="targetPoint"/>
                    </mxGeometry>
                </mxCell>
                <mxCell id="363" value="&lt;span&gt;Modify&amp;nbsp;&lt;/span&gt;Water Quality&amp;nbsp;Monitoring Sensors" style="rounded=1;whiteSpace=wrap;html=1;fillColor=none;" vertex="1" parent="1">
                    <mxGeometry x="3380" y="380" width="120" height="60" as="geometry"/>
                </mxCell>
                <mxCell id="364" value="Water Quality&amp;nbsp;Monitoring Sensors&amp;nbsp;&lt;span&gt;List&amp;nbsp;&lt;/span&gt;" style="rounded=1;whiteSpace=wrap;html=1;fillColor=none;" vertex="1" parent="1">
                    <mxGeometry x="3380" y="580" width="120" height="60" as="geometry"/>
                </mxCell>
                <mxCell id="365" value="Water Quality&amp;nbsp;Monitoring Sensors&amp;nbsp;&lt;span&gt;Details&lt;/span&gt;" style="rounded=1;whiteSpace=wrap;html=1;fillColor=none;" vertex="1" parent="1">
                    <mxGeometry x="3380" y="670" width="120" height="60" as="geometry"/>
                </mxCell>
                <mxCell id="366" value="&lt;span&gt;Remove&amp;nbsp;&lt;/span&gt;Water Quality&amp;nbsp;Monitoring Sensors" style="rounded=1;whiteSpace=wrap;html=1;fillColor=none;" vertex="1" parent="1">
                    <mxGeometry x="3680" y="380" width="120" height="60" as="geometry"/>
                </mxCell>
                <mxCell id="367" value="Water Quality&amp;nbsp;Monitoring Sensors List&amp;nbsp;" style="rounded=1;whiteSpace=wrap;html=1;fillColor=none;" vertex="1" parent="1">
                    <mxGeometry x="3680" y="470" width="120" height="60" as="geometry"/>
                </mxCell>
                <mxCell id="368" value="Water Quality&amp;nbsp;Monitoring Sensors Details" style="rounded=1;whiteSpace=wrap;html=1;fillColor=none;" vertex="1" parent="1">
                    <mxGeometry x="3680" y="560" width="120" height="60" as="geometry"/>
                </mxCell>
                <mxCell id="369" value="" style="endArrow=classic;html=1;" edge="1" parent="1" target="363">
                    <mxGeometry width="50" height="50" relative="1" as="geometry">
                        <mxPoint x="3440" y="349.9999999999998" as="sourcePoint"/>
                        <mxPoint x="3570" y="460" as="targetPoint"/>
                    </mxGeometry>
                </mxCell>
                <mxCell id="370" value="" style="endArrow=classic;html=1;" edge="1" parent="1" target="366">
                    <mxGeometry width="50" height="50" relative="1" as="geometry">
                        <mxPoint x="3740" y="349.9999999999998" as="sourcePoint"/>
                        <mxPoint x="3720" y="460" as="targetPoint"/>
                    </mxGeometry>
                </mxCell>
                <mxCell id="371" value="" style="endArrow=classic;html=1;entryX=0.5;entryY=0;entryDx=0;entryDy=0;exitX=0.5;exitY=1;exitDx=0;exitDy=0;" edge="1" parent="1" source="366" target="367">
                    <mxGeometry width="50" height="50" relative="1" as="geometry">
                        <mxPoint x="3670" y="510" as="sourcePoint"/>
                        <mxPoint x="3720" y="460" as="targetPoint"/>
                    </mxGeometry>
                </mxCell>
                <mxCell id="372" value="" style="endArrow=classic;html=1;exitX=0.5;exitY=1;exitDx=0;exitDy=0;entryX=0.5;entryY=0;entryDx=0;entryDy=0;" edge="1" parent="1" source="364" target="365">
                    <mxGeometry width="50" height="50" relative="1" as="geometry">
                        <mxPoint x="3520" y="780" as="sourcePoint"/>
                        <mxPoint x="3570" y="730" as="targetPoint"/>
                    </mxGeometry>
                </mxCell>
                <mxCell id="373" value="" style="endArrow=classic;html=1;exitX=0.5;exitY=1;exitDx=0;exitDy=0;entryX=0.5;entryY=0;entryDx=0;entryDy=0;" edge="1" parent="1" source="367" target="368">
                    <mxGeometry width="50" height="50" relative="1" as="geometry">
                        <mxPoint x="3690" y="670" as="sourcePoint"/>
                        <mxPoint x="3740" y="620" as="targetPoint"/>
                    </mxGeometry>
                </mxCell>
                <mxCell id="374" value="Water Quality&amp;nbsp;Monitoring Sensors Already Exists" style="rhombus;whiteSpace=wrap;html=1;fillColor=none;" vertex="1" parent="1">
                    <mxGeometry x="3080" y="470" width="120" height="80" as="geometry"/>
                </mxCell>
                <mxCell id="375" value="" style="endArrow=classic;html=1;exitX=0.5;exitY=1;exitDx=0;exitDy=0;" edge="1" parent="1" source="359" target="374">
                    <mxGeometry width="50" height="50" relative="1" as="geometry">
                        <mxPoint x="3180" y="510" as="sourcePoint"/>
                        <mxPoint x="3230" y="460" as="targetPoint"/>
                    </mxGeometry>
                </mxCell>
                <mxCell id="376" value="" style="endArrow=classic;html=1;entryX=0.5;entryY=0;entryDx=0;entryDy=0;" edge="1" parent="1" target="361">
                    <mxGeometry width="50" height="50" relative="1" as="geometry">
                        <mxPoint x="3140" y="549.9999999999998" as="sourcePoint"/>
                        <mxPoint x="3230" y="560" as="targetPoint"/>
                    </mxGeometry>
                </mxCell>
                <mxCell id="377" value="Warning Message" style="rounded=1;whiteSpace=wrap;html=1;fillColor=none;" vertex="1" parent="1">
                    <mxGeometry x="3230" y="480" width="120" height="60" as="geometry"/>
                </mxCell>
                <mxCell id="378" value="" style="endArrow=classic;html=1;exitX=1;exitY=0.5;exitDx=0;exitDy=0;entryX=0;entryY=0.5;entryDx=0;entryDy=0;" edge="1" parent="1" source="374" target="377">
                    <mxGeometry width="50" height="50" relative="1" as="geometry">
                        <mxPoint x="3170" y="560" as="sourcePoint"/>
                        <mxPoint x="3210" y="510" as="targetPoint"/>
                    </mxGeometry>
                </mxCell>
                <mxCell id="379" value="No" style="text;html=1;align=center;verticalAlign=middle;resizable=0;points=[];autosize=1;strokeColor=none;fillColor=none;" vertex="1" parent="1">
                    <mxGeometry x="3145" y="550" width="30" height="20" as="geometry"/>
                </mxCell>
                <mxCell id="380" value="Yes" style="text;html=1;align=center;verticalAlign=middle;resizable=0;points=[];autosize=1;strokeColor=none;fillColor=none;" vertex="1" parent="1">
                    <mxGeometry x="3190" y="490" width="40" height="20" as="geometry"/>
                </mxCell>
                <mxCell id="381" value="Water Quality&amp;nbsp;Monitoring Sensors Already Exists" style="rhombus;whiteSpace=wrap;html=1;fillColor=none;" vertex="1" parent="1">
                    <mxGeometry x="3380" y="470" width="120" height="80" as="geometry"/>
                </mxCell>
                <mxCell id="382" value="Warning Message" style="rounded=1;whiteSpace=wrap;html=1;fillColor=none;" vertex="1" parent="1">
                    <mxGeometry x="3530" y="480" width="120" height="60" as="geometry"/>
                </mxCell>
                <mxCell id="383" value="" style="endArrow=classic;html=1;exitX=1;exitY=0.5;exitDx=0;exitDy=0;entryX=0;entryY=0.5;entryDx=0;entryDy=0;" edge="1" parent="1" source="381" target="382">
                    <mxGeometry width="50" height="50" relative="1" as="geometry">
                        <mxPoint x="3470" y="560" as="sourcePoint"/>
                        <mxPoint x="3510" y="510" as="targetPoint"/>
                    </mxGeometry>
                </mxCell>
                <mxCell id="384" value="No" style="text;html=1;align=center;verticalAlign=middle;resizable=0;points=[];autosize=1;strokeColor=none;fillColor=none;" vertex="1" parent="1">
                    <mxGeometry x="3445" y="550" width="30" height="20" as="geometry"/>
                </mxCell>
                <mxCell id="385" value="Yes" style="text;html=1;align=center;verticalAlign=middle;resizable=0;points=[];autosize=1;strokeColor=none;fillColor=none;" vertex="1" parent="1">
                    <mxGeometry x="3490" y="490" width="40" height="20" as="geometry"/>
                </mxCell>
                <mxCell id="386" value="" style="endArrow=classic;html=1;exitX=0.5;exitY=1;exitDx=0;exitDy=0;" edge="1" parent="1" source="363" target="381">
                    <mxGeometry width="50" height="50" relative="1" as="geometry">
                        <mxPoint x="3490" y="460" as="sourcePoint"/>
                        <mxPoint x="3540" y="410" as="targetPoint"/>
                    </mxGeometry>
                </mxCell>
                <mxCell id="387" value="" style="endArrow=classic;html=1;exitX=0.5;exitY=1;exitDx=0;exitDy=0;entryX=0.5;entryY=0;entryDx=0;entryDy=0;" edge="1" parent="1" source="381" target="364">
                    <mxGeometry width="50" height="50" relative="1" as="geometry">
                        <mxPoint x="3490" y="570" as="sourcePoint"/>
                        <mxPoint x="3540" y="520" as="targetPoint"/>
                    </mxGeometry>
                </mxCell>
                <mxCell id="388" value="" style="endArrow=classic;html=1;entryX=0.5;entryY=0;entryDx=0;entryDy=0;" edge="1" parent="1" target="359">
                    <mxGeometry width="50" height="50" relative="1" as="geometry">
                        <mxPoint x="3140" y="349.9999999999998" as="sourcePoint"/>
                        <mxPoint x="3200" y="400" as="targetPoint"/>
                    </mxGeometry>
                </mxCell>
                <mxCell id="389" value="Add Air Quality Monitoring Sensors" style="rounded=1;whiteSpace=wrap;html=1;fillColor=none;" vertex="1" parent="1">
                    <mxGeometry x="3830" y="380" width="120" height="60" as="geometry"/>
                </mxCell>
                <mxCell id="390" value="Air&amp;nbsp;Quality&amp;nbsp;Monitoring Sensors Details" style="rounded=1;whiteSpace=wrap;html=1;fillColor=none;" vertex="1" parent="1">
                    <mxGeometry x="3830" y="670" width="120" height="60" as="geometry"/>
                </mxCell>
                <mxCell id="391" value="Air&amp;nbsp;Quality&amp;nbsp;Monitoring Sensors List&amp;nbsp;" style="rounded=1;whiteSpace=wrap;html=1;fillColor=none;" vertex="1" parent="1">
                    <mxGeometry x="3830" y="580" width="120" height="60" as="geometry"/>
                </mxCell>
                <mxCell id="392" value="" style="endArrow=classic;html=1;exitX=0.5;exitY=1;exitDx=0;exitDy=0;entryX=0.5;entryY=0;entryDx=0;entryDy=0;" edge="1" parent="1" source="391" target="390">
                    <mxGeometry width="50" height="50" relative="1" as="geometry">
                        <mxPoint x="4040" y="740" as="sourcePoint"/>
                        <mxPoint x="4090" y="690" as="targetPoint"/>
                    </mxGeometry>
                </mxCell>
                <mxCell id="393" value="&lt;span&gt;Modify&amp;nbsp;&lt;/span&gt;Air&amp;nbsp;Quality&amp;nbsp;&lt;br&gt;Monitoring Sensors" style="rounded=1;whiteSpace=wrap;html=1;fillColor=none;" vertex="1" parent="1">
                    <mxGeometry x="4130" y="380" width="120" height="60" as="geometry"/>
                </mxCell>
                <mxCell id="394" value="Air&amp;nbsp;Quality&amp;nbsp;Monitoring Sensors&amp;nbsp;&lt;span&gt;List&amp;nbsp;&lt;/span&gt;" style="rounded=1;whiteSpace=wrap;html=1;fillColor=none;" vertex="1" parent="1">
                    <mxGeometry x="4130" y="580" width="120" height="60" as="geometry"/>
                </mxCell>
                <mxCell id="395" value="Air&amp;nbsp;Quality&amp;nbsp;Monitoring Sensors&amp;nbsp;&lt;span&gt;Details&lt;/span&gt;" style="rounded=1;whiteSpace=wrap;html=1;fillColor=none;" vertex="1" parent="1">
                    <mxGeometry x="4130" y="670" width="120" height="60" as="geometry"/>
                </mxCell>
                <mxCell id="396" value="&lt;span&gt;Remove&amp;nbsp;&lt;/span&gt;Air&amp;nbsp;Quality&amp;nbsp;&lt;br&gt;Monitoring Sensors" style="rounded=1;whiteSpace=wrap;html=1;fillColor=none;" vertex="1" parent="1">
                    <mxGeometry x="4430" y="380" width="120" height="60" as="geometry"/>
                </mxCell>
                <mxCell id="397" value="Air&amp;nbsp;Quality&amp;nbsp;Monitoring Sensors List&amp;nbsp;" style="rounded=1;whiteSpace=wrap;html=1;fillColor=none;" vertex="1" parent="1">
                    <mxGeometry x="4430" y="470" width="120" height="60" as="geometry"/>
                </mxCell>
                <mxCell id="398" value="Air&amp;nbsp;Quality&amp;nbsp;Monitoring Sensors Details" style="rounded=1;whiteSpace=wrap;html=1;fillColor=none;" vertex="1" parent="1">
                    <mxGeometry x="4430" y="560" width="120" height="60" as="geometry"/>
                </mxCell>
                <mxCell id="399" value="" style="endArrow=classic;html=1;" edge="1" parent="1" target="393">
                    <mxGeometry width="50" height="50" relative="1" as="geometry">
                        <mxPoint x="4190" y="349.9999999999998" as="sourcePoint"/>
                        <mxPoint x="4320" y="460" as="targetPoint"/>
                    </mxGeometry>
                </mxCell>
                <mxCell id="400" value="" style="endArrow=classic;html=1;" edge="1" parent="1" target="396">
                    <mxGeometry width="50" height="50" relative="1" as="geometry">
                        <mxPoint x="4490" y="349.9999999999998" as="sourcePoint"/>
                        <mxPoint x="4470" y="460" as="targetPoint"/>
                    </mxGeometry>
                </mxCell>
                <mxCell id="401" value="" style="endArrow=classic;html=1;entryX=0.5;entryY=0;entryDx=0;entryDy=0;exitX=0.5;exitY=1;exitDx=0;exitDy=0;" edge="1" parent="1" source="396" target="397">
                    <mxGeometry width="50" height="50" relative="1" as="geometry">
                        <mxPoint x="4420" y="510" as="sourcePoint"/>
                        <mxPoint x="4470" y="460" as="targetPoint"/>
                    </mxGeometry>
                </mxCell>
                <mxCell id="402" value="" style="endArrow=classic;html=1;exitX=0.5;exitY=1;exitDx=0;exitDy=0;entryX=0.5;entryY=0;entryDx=0;entryDy=0;" edge="1" parent="1" source="394" target="395">
                    <mxGeometry width="50" height="50" relative="1" as="geometry">
                        <mxPoint x="4270" y="780" as="sourcePoint"/>
                        <mxPoint x="4320" y="730" as="targetPoint"/>
                    </mxGeometry>
                </mxCell>
                <mxCell id="403" value="" style="endArrow=classic;html=1;exitX=0.5;exitY=1;exitDx=0;exitDy=0;entryX=0.5;entryY=0;entryDx=0;entryDy=0;" edge="1" parent="1" source="397" target="398">
                    <mxGeometry width="50" height="50" relative="1" as="geometry">
                        <mxPoint x="4440" y="670" as="sourcePoint"/>
                        <mxPoint x="4490" y="620" as="targetPoint"/>
                    </mxGeometry>
                </mxCell>
                <mxCell id="404" value="Air&amp;nbsp;Quality&amp;nbsp;Monitoring Sensors Already Exists" style="rhombus;whiteSpace=wrap;html=1;fillColor=none;" vertex="1" parent="1">
                    <mxGeometry x="3830" y="470" width="120" height="80" as="geometry"/>
                </mxCell>
                <mxCell id="405" value="" style="endArrow=classic;html=1;exitX=0.5;exitY=1;exitDx=0;exitDy=0;" edge="1" parent="1" source="389" target="404">
                    <mxGeometry width="50" height="50" relative="1" as="geometry">
                        <mxPoint x="3930" y="510" as="sourcePoint"/>
                        <mxPoint x="3980" y="460" as="targetPoint"/>
                    </mxGeometry>
                </mxCell>
                <mxCell id="406" value="" style="endArrow=classic;html=1;entryX=0.5;entryY=0;entryDx=0;entryDy=0;" edge="1" parent="1" target="391">
                    <mxGeometry width="50" height="50" relative="1" as="geometry">
                        <mxPoint x="3890" y="549.9999999999998" as="sourcePoint"/>
                        <mxPoint x="3980" y="560" as="targetPoint"/>
                    </mxGeometry>
                </mxCell>
                <mxCell id="407" value="Warning Message" style="rounded=1;whiteSpace=wrap;html=1;fillColor=none;" vertex="1" parent="1">
                    <mxGeometry x="3980" y="480" width="120" height="60" as="geometry"/>
                </mxCell>
                <mxCell id="408" value="" style="endArrow=classic;html=1;exitX=1;exitY=0.5;exitDx=0;exitDy=0;entryX=0;entryY=0.5;entryDx=0;entryDy=0;" edge="1" parent="1" source="404" target="407">
                    <mxGeometry width="50" height="50" relative="1" as="geometry">
                        <mxPoint x="3920" y="560" as="sourcePoint"/>
                        <mxPoint x="3960" y="510" as="targetPoint"/>
                    </mxGeometry>
                </mxCell>
                <mxCell id="409" value="No" style="text;html=1;align=center;verticalAlign=middle;resizable=0;points=[];autosize=1;strokeColor=none;fillColor=none;" vertex="1" parent="1">
                    <mxGeometry x="3895" y="550" width="30" height="20" as="geometry"/>
                </mxCell>
                <mxCell id="410" value="Yes" style="text;html=1;align=center;verticalAlign=middle;resizable=0;points=[];autosize=1;strokeColor=none;fillColor=none;" vertex="1" parent="1">
                    <mxGeometry x="3940" y="490" width="40" height="20" as="geometry"/>
                </mxCell>
                <mxCell id="411" value="Air&amp;nbsp;Quality&amp;nbsp;Monitoring Sensors Already Exists" style="rhombus;whiteSpace=wrap;html=1;fillColor=none;" vertex="1" parent="1">
                    <mxGeometry x="4130" y="470" width="120" height="80" as="geometry"/>
                </mxCell>
                <mxCell id="412" value="Warning Message" style="rounded=1;whiteSpace=wrap;html=1;fillColor=none;" vertex="1" parent="1">
                    <mxGeometry x="4280" y="480" width="120" height="60" as="geometry"/>
                </mxCell>
                <mxCell id="413" value="" style="endArrow=classic;html=1;exitX=1;exitY=0.5;exitDx=0;exitDy=0;entryX=0;entryY=0.5;entryDx=0;entryDy=0;" edge="1" parent="1" source="411" target="412">
                    <mxGeometry width="50" height="50" relative="1" as="geometry">
                        <mxPoint x="4220" y="560" as="sourcePoint"/>
                        <mxPoint x="4260" y="510" as="targetPoint"/>
                    </mxGeometry>
                </mxCell>
                <mxCell id="414" value="No" style="text;html=1;align=center;verticalAlign=middle;resizable=0;points=[];autosize=1;strokeColor=none;fillColor=none;" vertex="1" parent="1">
                    <mxGeometry x="4195" y="550" width="30" height="20" as="geometry"/>
                </mxCell>
                <mxCell id="415" value="Yes" style="text;html=1;align=center;verticalAlign=middle;resizable=0;points=[];autosize=1;strokeColor=none;fillColor=none;" vertex="1" parent="1">
                    <mxGeometry x="4240" y="490" width="40" height="20" as="geometry"/>
                </mxCell>
                <mxCell id="416" value="" style="endArrow=classic;html=1;exitX=0.5;exitY=1;exitDx=0;exitDy=0;" edge="1" parent="1" source="393" target="411">
                    <mxGeometry width="50" height="50" relative="1" as="geometry">
                        <mxPoint x="4240" y="460" as="sourcePoint"/>
                        <mxPoint x="4290" y="410" as="targetPoint"/>
                    </mxGeometry>
                </mxCell>
                <mxCell id="417" value="" style="endArrow=classic;html=1;exitX=0.5;exitY=1;exitDx=0;exitDy=0;entryX=0.5;entryY=0;entryDx=0;entryDy=0;" edge="1" parent="1" source="411" target="394">
                    <mxGeometry width="50" height="50" relative="1" as="geometry">
                        <mxPoint x="4240" y="570" as="sourcePoint"/>
                        <mxPoint x="4290" y="520" as="targetPoint"/>
                    </mxGeometry>
                </mxCell>
                <mxCell id="418" value="" style="endArrow=classic;html=1;entryX=0.5;entryY=0;entryDx=0;entryDy=0;" edge="1" parent="1" target="389">
                    <mxGeometry width="50" height="50" relative="1" as="geometry">
                        <mxPoint x="3890" y="349.9999999999998" as="sourcePoint"/>
                        <mxPoint x="3950" y="400" as="targetPoint"/>
                    </mxGeometry>
                </mxCell>
                <mxCell id="419" value="Add Camera for Parking Slots" style="rounded=1;whiteSpace=wrap;html=1;fillColor=none;" vertex="1" parent="1">
                    <mxGeometry x="4580" y="380" width="120" height="60" as="geometry"/>
                </mxCell>
                <mxCell id="420" value="Camera Details" style="rounded=1;whiteSpace=wrap;html=1;fillColor=none;" vertex="1" parent="1">
                    <mxGeometry x="4580" y="670" width="120" height="60" as="geometry"/>
                </mxCell>
                <mxCell id="421" value="Camera List&amp;nbsp;" style="rounded=1;whiteSpace=wrap;html=1;fillColor=none;" vertex="1" parent="1">
                    <mxGeometry x="4580" y="580" width="120" height="60" as="geometry"/>
                </mxCell>
                <mxCell id="422" value="" style="endArrow=classic;html=1;exitX=0.5;exitY=1;exitDx=0;exitDy=0;entryX=0.5;entryY=0;entryDx=0;entryDy=0;" edge="1" parent="1" source="421" target="420">
                    <mxGeometry width="50" height="50" relative="1" as="geometry">
                        <mxPoint x="4790" y="740" as="sourcePoint"/>
                        <mxPoint x="4840" y="690" as="targetPoint"/>
                    </mxGeometry>
                </mxCell>
                <mxCell id="423" value="&lt;span&gt;Modify&amp;nbsp;&lt;/span&gt;Camera for Parking Slots" style="rounded=1;whiteSpace=wrap;html=1;fillColor=none;" vertex="1" parent="1">
                    <mxGeometry x="4880" y="380" width="120" height="60" as="geometry"/>
                </mxCell>
                <mxCell id="424" value="Camera List&amp;nbsp;" style="rounded=1;whiteSpace=wrap;html=1;fillColor=none;" vertex="1" parent="1">
                    <mxGeometry x="4880" y="580" width="120" height="60" as="geometry"/>
                </mxCell>
                <mxCell id="425" value="Camera Details" style="rounded=1;whiteSpace=wrap;html=1;fillColor=none;" vertex="1" parent="1">
                    <mxGeometry x="4880" y="670" width="120" height="60" as="geometry"/>
                </mxCell>
                <mxCell id="426" value="&lt;span&gt;Remove&amp;nbsp;&lt;/span&gt;Camera for Parking Slots" style="rounded=1;whiteSpace=wrap;html=1;fillColor=none;" vertex="1" parent="1">
                    <mxGeometry x="5180" y="380" width="120" height="60" as="geometry"/>
                </mxCell>
                <mxCell id="427" value="Camera List&amp;nbsp;" style="rounded=1;whiteSpace=wrap;html=1;fillColor=none;" vertex="1" parent="1">
                    <mxGeometry x="5180" y="470" width="120" height="60" as="geometry"/>
                </mxCell>
                <mxCell id="428" value="Camera Details" style="rounded=1;whiteSpace=wrap;html=1;fillColor=none;" vertex="1" parent="1">
                    <mxGeometry x="5180" y="560" width="120" height="60" as="geometry"/>
                </mxCell>
                <mxCell id="429" value="" style="endArrow=classic;html=1;" edge="1" parent="1" target="423">
                    <mxGeometry width="50" height="50" relative="1" as="geometry">
                        <mxPoint x="4940" y="349.9999999999998" as="sourcePoint"/>
                        <mxPoint x="5070" y="460" as="targetPoint"/>
                    </mxGeometry>
                </mxCell>
                <mxCell id="431" value="" style="endArrow=classic;html=1;entryX=0.5;entryY=0;entryDx=0;entryDy=0;exitX=0.5;exitY=1;exitDx=0;exitDy=0;" edge="1" parent="1" source="426" target="427">
                    <mxGeometry width="50" height="50" relative="1" as="geometry">
                        <mxPoint x="5170" y="510" as="sourcePoint"/>
                        <mxPoint x="5220" y="460" as="targetPoint"/>
                    </mxGeometry>
                </mxCell>
                <mxCell id="432" value="" style="endArrow=classic;html=1;exitX=0.5;exitY=1;exitDx=0;exitDy=0;entryX=0.5;entryY=0;entryDx=0;entryDy=0;" edge="1" parent="1" source="424" target="425">
                    <mxGeometry width="50" height="50" relative="1" as="geometry">
                        <mxPoint x="5020" y="780" as="sourcePoint"/>
                        <mxPoint x="5070" y="730" as="targetPoint"/>
                    </mxGeometry>
                </mxCell>
                <mxCell id="433" value="" style="endArrow=classic;html=1;exitX=0.5;exitY=1;exitDx=0;exitDy=0;entryX=0.5;entryY=0;entryDx=0;entryDy=0;" edge="1" parent="1" source="427" target="428">
                    <mxGeometry width="50" height="50" relative="1" as="geometry">
                        <mxPoint x="5190" y="670" as="sourcePoint"/>
                        <mxPoint x="5240" y="620" as="targetPoint"/>
                    </mxGeometry>
                </mxCell>
                <mxCell id="434" value="Camera Already Exists" style="rhombus;whiteSpace=wrap;html=1;fillColor=none;" vertex="1" parent="1">
                    <mxGeometry x="4580" y="470" width="120" height="80" as="geometry"/>
                </mxCell>
                <mxCell id="435" value="" style="endArrow=classic;html=1;exitX=0.5;exitY=1;exitDx=0;exitDy=0;" edge="1" parent="1" source="419" target="434">
                    <mxGeometry width="50" height="50" relative="1" as="geometry">
                        <mxPoint x="4680" y="510" as="sourcePoint"/>
                        <mxPoint x="4730" y="460" as="targetPoint"/>
                    </mxGeometry>
                </mxCell>
                <mxCell id="436" value="" style="endArrow=classic;html=1;entryX=0.5;entryY=0;entryDx=0;entryDy=0;" edge="1" parent="1" target="421">
                    <mxGeometry width="50" height="50" relative="1" as="geometry">
                        <mxPoint x="4640" y="549.9999999999998" as="sourcePoint"/>
                        <mxPoint x="4730" y="560" as="targetPoint"/>
                    </mxGeometry>
                </mxCell>
                <mxCell id="437" value="Warning Message" style="rounded=1;whiteSpace=wrap;html=1;fillColor=none;" vertex="1" parent="1">
                    <mxGeometry x="4730" y="480" width="120" height="60" as="geometry"/>
                </mxCell>
                <mxCell id="438" value="" style="endArrow=classic;html=1;exitX=1;exitY=0.5;exitDx=0;exitDy=0;entryX=0;entryY=0.5;entryDx=0;entryDy=0;" edge="1" parent="1" source="434" target="437">
                    <mxGeometry width="50" height="50" relative="1" as="geometry">
                        <mxPoint x="4670" y="560" as="sourcePoint"/>
                        <mxPoint x="4710" y="510" as="targetPoint"/>
                    </mxGeometry>
                </mxCell>
                <mxCell id="439" value="No" style="text;html=1;align=center;verticalAlign=middle;resizable=0;points=[];autosize=1;strokeColor=none;fillColor=none;" vertex="1" parent="1">
                    <mxGeometry x="4645" y="550" width="30" height="20" as="geometry"/>
                </mxCell>
                <mxCell id="440" value="Yes" style="text;html=1;align=center;verticalAlign=middle;resizable=0;points=[];autosize=1;strokeColor=none;fillColor=none;" vertex="1" parent="1">
                    <mxGeometry x="4690" y="490" width="40" height="20" as="geometry"/>
                </mxCell>
                <mxCell id="441" value="Camera Already Exists" style="rhombus;whiteSpace=wrap;html=1;fillColor=none;" vertex="1" parent="1">
                    <mxGeometry x="4880" y="470" width="120" height="80" as="geometry"/>
                </mxCell>
                <mxCell id="442" value="Warning Message" style="rounded=1;whiteSpace=wrap;html=1;fillColor=none;" vertex="1" parent="1">
                    <mxGeometry x="5030" y="480" width="120" height="60" as="geometry"/>
                </mxCell>
                <mxCell id="443" value="" style="endArrow=classic;html=1;exitX=1;exitY=0.5;exitDx=0;exitDy=0;entryX=0;entryY=0.5;entryDx=0;entryDy=0;" edge="1" parent="1" source="441" target="442">
                    <mxGeometry width="50" height="50" relative="1" as="geometry">
                        <mxPoint x="4970" y="560" as="sourcePoint"/>
                        <mxPoint x="5010" y="510" as="targetPoint"/>
                    </mxGeometry>
                </mxCell>
                <mxCell id="444" value="No" style="text;html=1;align=center;verticalAlign=middle;resizable=0;points=[];autosize=1;strokeColor=none;fillColor=none;" vertex="1" parent="1">
                    <mxGeometry x="4945" y="550" width="30" height="20" as="geometry"/>
                </mxCell>
                <mxCell id="445" value="Yes" style="text;html=1;align=center;verticalAlign=middle;resizable=0;points=[];autosize=1;strokeColor=none;fillColor=none;" vertex="1" parent="1">
                    <mxGeometry x="4990" y="490" width="40" height="20" as="geometry"/>
                </mxCell>
                <mxCell id="446" value="" style="endArrow=classic;html=1;exitX=0.5;exitY=1;exitDx=0;exitDy=0;" edge="1" parent="1" source="423" target="441">
                    <mxGeometry width="50" height="50" relative="1" as="geometry">
                        <mxPoint x="4990" y="460" as="sourcePoint"/>
                        <mxPoint x="5040" y="410" as="targetPoint"/>
                    </mxGeometry>
                </mxCell>
                <mxCell id="447" value="" style="endArrow=classic;html=1;exitX=0.5;exitY=1;exitDx=0;exitDy=0;entryX=0.5;entryY=0;entryDx=0;entryDy=0;" edge="1" parent="1" source="441" target="424">
                    <mxGeometry width="50" height="50" relative="1" as="geometry">
                        <mxPoint x="4990" y="570" as="sourcePoint"/>
                        <mxPoint x="5040" y="520" as="targetPoint"/>
                    </mxGeometry>
                </mxCell>
                <mxCell id="448" value="" style="endArrow=classic;html=1;entryX=0.5;entryY=0;entryDx=0;entryDy=0;" edge="1" parent="1" target="419">
                    <mxGeometry width="50" height="50" relative="1" as="geometry">
                        <mxPoint x="4640" y="349.9999999999998" as="sourcePoint"/>
                        <mxPoint x="4700" y="400" as="targetPoint"/>
                    </mxGeometry>
                </mxCell>
                <mxCell id="450" value="" style="endArrow=none;html=1;entryX=0.5;entryY=1;entryDx=0;entryDy=0;" edge="1" parent="1" target="24">
                    <mxGeometry width="50" height="50" relative="1" as="geometry">
                        <mxPoint x="2390" y="350" as="sourcePoint"/>
                        <mxPoint x="2430" y="290" as="targetPoint"/>
                    </mxGeometry>
                </mxCell>
                <mxCell id="451" value="" style="endArrow=none;html=1;entryX=0.5;entryY=1;entryDx=0;entryDy=0;" edge="1" parent="1" target="28">
                    <mxGeometry width="50" height="50" relative="1" as="geometry">
                        <mxPoint x="2390" y="760" as="sourcePoint"/>
                        <mxPoint x="40" y="760" as="targetPoint"/>
                        <Array as="points">
                            <mxPoint x="2240" y="760"/>
                            <mxPoint x="140" y="760"/>
                        </Array>
                    </mxGeometry>
                </mxCell>
                <mxCell id="453" value="" style="endArrow=none;html=1;entryX=0.5;entryY=1;entryDx=0;entryDy=0;" edge="1" parent="1" target="99">
                    <mxGeometry width="50" height="50" relative="1" as="geometry">
                        <mxPoint x="440" y="760" as="sourcePoint"/>
                        <mxPoint x="490" y="600" as="targetPoint"/>
                    </mxGeometry>
                </mxCell>
                <mxCell id="454" value="" style="endArrow=none;html=1;entryX=0.5;entryY=1;entryDx=0;entryDy=0;" edge="1" parent="1" target="102">
                    <mxGeometry width="50" height="50" relative="1" as="geometry">
                        <mxPoint x="740" y="760" as="sourcePoint"/>
                        <mxPoint x="840" y="580" as="targetPoint"/>
                    </mxGeometry>
                </mxCell>
                <mxCell id="456" value="" style="endArrow=none;html=1;entryX=0.5;entryY=1;entryDx=0;entryDy=0;" edge="1" parent="1" target="238">
                    <mxGeometry width="50" height="50" relative="1" as="geometry">
                        <mxPoint x="890" y="760" as="sourcePoint"/>
                        <mxPoint x="910" y="700" as="targetPoint"/>
                    </mxGeometry>
                </mxCell>
                <mxCell id="457" value="" style="endArrow=none;html=1;entryX=0.5;entryY=1;entryDx=0;entryDy=0;" edge="1" parent="1" target="243">
                    <mxGeometry width="50" height="50" relative="1" as="geometry">
                        <mxPoint x="1190" y="760" as="sourcePoint"/>
                        <mxPoint x="1280" y="660" as="targetPoint"/>
                    </mxGeometry>
                </mxCell>
                <mxCell id="458" value="" style="endArrow=none;html=1;entryX=0.5;entryY=1;entryDx=0;entryDy=0;" edge="1" parent="1" target="246">
                    <mxGeometry width="50" height="50" relative="1" as="geometry">
                        <mxPoint x="1490" y="760" as="sourcePoint"/>
                        <mxPoint x="1520" y="610" as="targetPoint"/>
                    </mxGeometry>
                </mxCell>
                <mxCell id="459" value="" style="endArrow=none;html=1;entryX=0.5;entryY=1;entryDx=0;entryDy=0;" edge="1" parent="1" target="268">
                    <mxGeometry width="50" height="50" relative="1" as="geometry">
                        <mxPoint x="1640" y="760" as="sourcePoint"/>
                        <mxPoint x="1800" y="680" as="targetPoint"/>
                    </mxGeometry>
                </mxCell>
                <mxCell id="460" value="" style="endArrow=none;html=1;entryX=0.5;entryY=1;entryDx=0;entryDy=0;" edge="1" parent="1" target="273">
                    <mxGeometry width="50" height="50" relative="1" as="geometry">
                        <mxPoint x="1940" y="760" as="sourcePoint"/>
                        <mxPoint x="1800" y="680" as="targetPoint"/>
                    </mxGeometry>
                </mxCell>
                <mxCell id="461" value="" style="endArrow=none;html=1;entryX=0.5;entryY=1;entryDx=0;entryDy=0;" edge="1" parent="1" target="276">
                    <mxGeometry width="50" height="50" relative="1" as="geometry">
                        <mxPoint x="2240" y="760" as="sourcePoint"/>
                        <mxPoint x="2340" y="670" as="targetPoint"/>
                    </mxGeometry>
                </mxCell>
                <mxCell id="462" value="" style="endArrow=none;html=1;entryX=0.5;entryY=1;entryDx=0;entryDy=0;" edge="1" parent="1" target="428">
                    <mxGeometry width="50" height="50" relative="1" as="geometry">
                        <mxPoint x="2390" y="760" as="sourcePoint"/>
                        <mxPoint x="5250" y="690" as="targetPoint"/>
                        <Array as="points">
                            <mxPoint x="5240" y="760"/>
                        </Array>
                    </mxGeometry>
                </mxCell>
                <mxCell id="463" value="" style="endArrow=none;html=1;" edge="1" parent="1">
                    <mxGeometry width="50" height="50" relative="1" as="geometry">
                        <mxPoint x="4940" y="760" as="sourcePoint"/>
                        <mxPoint x="4940" y="730" as="targetPoint"/>
                    </mxGeometry>
                </mxCell>
                <mxCell id="464" value="" style="endArrow=none;html=1;entryX=0.5;entryY=1;entryDx=0;entryDy=0;" edge="1" parent="1" target="420">
                    <mxGeometry width="50" height="50" relative="1" as="geometry">
                        <mxPoint x="4640" y="760" as="sourcePoint"/>
                        <mxPoint x="4620" y="640" as="targetPoint"/>
                    </mxGeometry>
                </mxCell>
                <mxCell id="465" value="" style="endArrow=none;html=1;entryX=0.5;entryY=1;entryDx=0;entryDy=0;" edge="1" parent="1" target="398">
                    <mxGeometry width="50" height="50" relative="1" as="geometry">
                        <mxPoint x="4490" y="760" as="sourcePoint"/>
                        <mxPoint x="4620" y="640" as="targetPoint"/>
                    </mxGeometry>
                </mxCell>
                <mxCell id="466" value="" style="endArrow=none;html=1;entryX=0.5;entryY=1;entryDx=0;entryDy=0;" edge="1" parent="1" target="395">
                    <mxGeometry width="50" height="50" relative="1" as="geometry">
                        <mxPoint x="4190" y="760" as="sourcePoint"/>
                        <mxPoint x="4130" y="640" as="targetPoint"/>
                    </mxGeometry>
                </mxCell>
                <mxCell id="467" value="" style="endArrow=none;html=1;entryX=0.5;entryY=1;entryDx=0;entryDy=0;" edge="1" parent="1" target="390">
                    <mxGeometry width="50" height="50" relative="1" as="geometry">
                        <mxPoint x="3890" y="760" as="sourcePoint"/>
                        <mxPoint x="4130" y="640" as="targetPoint"/>
                    </mxGeometry>
                </mxCell>
                <mxCell id="468" value="" style="endArrow=none;html=1;entryX=0.5;entryY=1;entryDx=0;entryDy=0;" edge="1" parent="1" target="368">
                    <mxGeometry width="50" height="50" relative="1" as="geometry">
                        <mxPoint x="3740" y="760" as="sourcePoint"/>
                        <mxPoint x="3740" y="640" as="targetPoint"/>
                    </mxGeometry>
                </mxCell>
                <mxCell id="469" value="" style="endArrow=none;html=1;entryX=0.5;entryY=1;entryDx=0;entryDy=0;" edge="1" parent="1" target="365">
                    <mxGeometry width="50" height="50" relative="1" as="geometry">
                        <mxPoint x="3440" y="760" as="sourcePoint"/>
                        <mxPoint x="3290" y="640" as="targetPoint"/>
                    </mxGeometry>
                </mxCell>
                <mxCell id="470" value="" style="endArrow=none;html=1;entryX=0.5;entryY=1;entryDx=0;entryDy=0;" edge="1" parent="1" target="360">
                    <mxGeometry width="50" height="50" relative="1" as="geometry">
                        <mxPoint x="3140" y="760" as="sourcePoint"/>
                        <mxPoint x="3290" y="640" as="targetPoint"/>
                    </mxGeometry>
                </mxCell>
                <mxCell id="471" value="" style="endArrow=none;html=1;entryX=0.5;entryY=1;entryDx=0;entryDy=0;" edge="1" parent="1" target="307">
                    <mxGeometry width="50" height="50" relative="1" as="geometry">
                        <mxPoint x="2990" y="760" as="sourcePoint"/>
                        <mxPoint x="2920" y="640" as="targetPoint"/>
                    </mxGeometry>
                </mxCell>
                <mxCell id="472" value="" style="endArrow=none;html=1;entryX=0.5;entryY=1;entryDx=0;entryDy=0;" edge="1" parent="1" target="304">
                    <mxGeometry width="50" height="50" relative="1" as="geometry">
                        <mxPoint x="2690" y="760" as="sourcePoint"/>
                        <mxPoint x="2920" y="640" as="targetPoint"/>
                    </mxGeometry>
                </mxCell>
                <mxCell id="474" value="" style="rounded=0;whiteSpace=wrap;html=1;fillColor=none;" vertex="1" parent="1">
                    <mxGeometry x="40" y="40" width="5320" height="920" as="geometry"/>
                </mxCell>
            </root>
        </mxGraphModel>
    </diagram>
</mxfile>